<svg width="500" height="500" viewBox="0 0 500 500" fill="none" xmlns="http://www.w3.org/2000/svg">
<rect width="500" height="500" rx="140" fill="#8B5CF6"/>
<rect x="417.769" y="136.205" width="19.2308" height="291.59" rx="8" fill="white"/>
<rect x="321.615" y="135" width="115.385" height="19.2787" rx="8" fill="white"/>
<rect x="321.615" y="135" width="19.2308" height="92.7787" rx="8" fill="white"/>
<rect x="226.663" y="209.705" width="114.183" height="19.2787" rx="8" fill="white"/>
<rect x="226.663" y="209.705" width="19.2308" height="93.9836" rx="8" fill="white"/>
<rect x="131.712" y="284.41" width="114.183" height="19.2787" rx="8" fill="white"/>
<rect x="131.712" y="284.41" width="19.2308" height="93.9836" rx="8" fill="white"/>
<rect x="62" y="359.115" width="88.9423" height="19.2787" rx="8" fill="white"/>
<rect x="62" y="359.115" width="19.2308" height="69.8852" rx="8" fill="white"/>
<rect x="62" y="409.721" width="375" height="19.2787" rx="8" fill="white"/>
<rect width="301.853" height="23.8366" rx="8" transform="matrix(0.692366 -0.721547 0.692366 0.721547 62 279.801)" fill="white"/>
<rect width="23.3409" height="77.0798" rx="8" transform="matrix(0.999324 0.0367737 -0.033863 0.999426 264.456 62.6678)" fill="white"/>
<rect width="24.3193" height="74.4086" rx="8" transform="matrix(0.0621714 0.998065 -0.997719 0.067499 286.488 62.221)" fill="white"/>
</svg>
